<svg id="Layer_1" data-name="Layer 1" xmlns="http://www.w3.org/2000/svg" viewBox="0 0 1920 1080"><defs><style>.cls-1{fill:#fff;}.cls-2{fill:#db6015;}</style></defs><title>Focuvax_Logo</title><path class="cls-1" d="M247.1922,400.45237V419.646H94.72874v95.60693h129.2861v19.55546H94.72874V658.30034H73v-257.848Z"/><path class="cls-1" d="M395.67485,663.73238q-53.60046,0-86.915-37.663-33.32306-37.66011-33.3175-96.693,0-58.66725,33.3175-96.33058,32.94953-37.29535,86.915-37.30121,54.6785,0,87.63935,37.30121,32.94952,37.30326,32.95523,96.33058,0,59.39763-32.95523,96.693Q449.99116,663.73822,395.67485,663.73238Zm0-19.91787q44.54406,0,71.34279-31.50676,26.796-31.142,26.79881-82.9314,0-51.41879-26.79881-82.569-27.16092-31.142-71.34279-31.14494-44.1874,0-70.98052,31.14494-26.80452,31.1499-26.79881,82.569,0,51.42756,27.16092,82.9314Q351.85241,643.81452,395.67485,643.81451Z"/><path class="cls-1" d="M682.85338,663.73238q-52.87887,0-84.01774-37.663-31.15035-37.66011-31.14465-97.05481,0-60.47609,31.50676-96.693,31.14157-36.57464,83.29351-36.577,40.55485,0,70.61856,22.81539,29.33362,23.17983,34.76581,59.7536h-22.453q-5.79693-28.6037-28.06621-45.63018-22.27193-17.01773-54.1408-17.02094-42.73609,0-67.72133,30.42071-25.353,30.06356-25.3502,82.93139,0,52.14828,24.98808,83.29322,24.623,31.50676,68.44557,31.50676,34.766,0,57.76225-20.6421,22.99352-20.6424,26.61775-55.77061H789.6865q-4.71057,43.10062-33.67975,69.894Q727.02954,663.73559,682.85338,663.73238Z"/><path class="cls-1" d="M1010.95545,641.2794q-25.71816,22.09348-71.34279,22.09115-45.63062,0-71.34279-22.09115-26.07457-21.72875-26.07443-66.27286V400.45237h21.72874v175.279q0,68.08842,75.68848,68.08316,75.68541,0,75.68848-68.08316v-175.279h21.72874V575.00654Q1037.02988,619.55124,1010.95545,641.2794Z"/><path class="cls-2" d="M1587.12834,658.30034H1502.024l-11.58861-35.12793h-80.75869l-11.5886,35.12793h-84.742l97.0551-257.848h80.39629ZM1440.45919,529.73876l-12.67525,38.74968h44.90625l-12.67525-38.74968-9.77773-33.68Z"/><path class="cls-2" d="M1875.75709,400.45237l-87.6395,122.04348L1883,658.30034h-97.0551l-31.14465-51.06281-14.12371-27.16078-14.12371,26.799-32.231,51.42463h-96.33058l95.96846-136.1669L1605.9584,400.45237h94.15788l24.626,40.56055,16.65853,30.05771,16.2967-30.05771,24.98809-40.56055Z"/><path class="cls-2" d="M1273.01614,591.48619a2.20143,2.20143,0,0,0-1.56535-2.69142l-5.21859-1.38068,42.861-162.02029,1.24793-4.71739-9.13529-7.92714a1.157,1.157,0,0,0,.06171-.16443l.68787-2.60027c.00458-.01723.00453-.03434.00826-.05149l.15725.04158a1.13927,1.13927,0,0,0,1.39275-.80995l.47473-1.79475a1.12887,1.12887,0,0,0,.03094-.35576,1.03194,1.03194,0,0,0,.14565-.31175l.85888-3.24659a1.04147,1.04147,0,0,0-.74054-1.27324l-.42092-.11137,1.68588-24.54557a2.009,2.009,0,0,0-1.42842-2.45608l-3.47769-.72293,20.351-77.81267-2.39424-1.79567-22.14668,78.41122-2.48984-.78613a2.00907,2.00907,0,0,0-2.4561,1.42849l-10.67182,22.16836-.42092-.11137a1.04165,1.04165,0,0,0-1.27326.74062l-.85885,3.24645a1.03255,1.03255,0,0,0-.02748.34307,1.12712,1.12712,0,0,0-.14908.3246l-.47476,1.79458a1.13938,1.13938,0,0,0,.81,1.39292l.15717.04156c-.00522.01676-.01371.03158-.01826.04867l-.68786,2.60028a1.15,1.15,0,0,0-.02772.17363l-11.86006,2.373-1.248,4.71738-42.86094,162.02031,4.32924,1.14529-9.54794-2.52585a2.20164,2.20164,0,0,0-2.69144,1.56543l-.10333.39077a2.20141,2.20141,0,0,0,1.56528,2.6914l11.03314,2.91874-16.87973,63.80768-4.68986-1.2406a1.88262,1.88262,0,0,0-2.30156,1.33854l-.26649,1.00757a1.88264,1.88264,0,0,0,1.33856,2.30149l41.94061,11.11421a1.88286,1.88286,0,0,0,2.30152-1.3387l.26653-1.00741a1.88268,1.88268,0,0,0-1.33852-2.30163l-4.68986-1.2406,16.87977-63.80782,11.18089,2.95794a2.20165,2.20165,0,0,0,2.69151-1.56541Z"/><polygon class="cls-1" points="1238.392 658.064 1156.389 658.064 1076.781 400.683 1158.784 400.683 1238.392 658.064"/></svg>