<?xml version="1.0" standalone="no"?>
<!DOCTYPE svg PUBLIC "-//W3C//DTD SVG 20010904//EN"
 "http://www.w3.org/TR/2001/REC-SVG-20010904/DTD/svg10.dtd">
<svg version="1.0" xmlns="http://www.w3.org/2000/svg"
 width="1280.000000pt" height="293.000000pt" viewBox="0 0 1280.000000 293.000000"
 preserveAspectRatio="xMidYMid meet">
<metadata>
Created by potrace 1.16, written by Peter Selinger 2001-2019
</metadata>
<g transform="translate(0.000000,293.000000) scale(0.100000,-0.100000)"
fill="#000000" stroke="none">
<path d="M8726 2457 c-86 -309 -85 -307 -101 -307 -18 0 -106 -166 -108 -202
0 -23 -5 -27 -44 -33 -23 -3 -43 -12 -43 -18 0 -7 -65 -255 -143 -552 -140
-524 -144 -540 -168 -540 -22 0 -25 -6 -20 -34 0 -5 17 -12 36 -15 19 -4 35
-8 35 -9 0 -1 -7 -27 -15 -57 l-15 -55 61 -202 c58 -188 64 -202 88 -206 38
-8 57 27 21 38 -11 3 -20 9 -20 13 0 4 25 97 54 207 39 144 58 199 68 197 7
-2 28 -6 46 -9 28 -5 32 -3 32 16 0 12 -6 21 -14 21 -8 0 -17 4 -20 8 -5 8 64
273 235 916 l50 189 -30 31 c-19 19 -27 36 -22 41 5 6 11 60 14 122 6 97 4
114 -9 121 -14 8 -15 15 -6 43 31 98 122 471 117 479 -3 6 -9 10 -13 10 -4 0
-34 -96 -66 -213z"/>
<path d="M9385 1928 c-7 -18 -106 -280 -220 -583 -114 -302 -245 -651 -292
-775 -47 -124 -93 -249 -103 -277 l-19 -53 287 0 288 0 38 115 37 115 266 -2
266 -3 37 -110 37 -110 286 -3 c199 -1 287 1 287 8 0 10 -110 306 -518 1397
l-117 313 -273 0 -273 0 -14 -32z m315 -733 c12 -44 42 -141 66 -215 24 -74
44 -136 44 -137 0 -2 -63 -3 -140 -3 -77 0 -140 3 -140 8 0 4 19 68 43 142 24
74 54 172 67 218 13 45 27 79 30 75 4 -5 17 -44 30 -88z"/>
<path d="M10832 1778 c72 -101 152 -212 178 -248 26 -36 97 -134 158 -219 62
-84 112 -158 112 -163 0 -6 -22 -40 -48 -77 -27 -36 -80 -111 -119 -166 -38
-55 -125 -179 -193 -275 -68 -96 -150 -213 -183 -260 -33 -47 -66 -92 -73
-101 -8 -8 -14 -19 -14 -22 0 -4 147 -6 328 -5 l327 3 98 155 c53 85 120 199
149 252 l52 97 51 -97 c29 -53 95 -167 147 -252 l96 -155 332 -3 332 -2 -68
97 c-37 54 -176 253 -309 443 -133 190 -244 350 -248 357 -4 6 59 103 146 225
84 117 205 285 268 373 63 88 125 175 137 193 l23 32 -318 0 -318 -1 -86 -142
c-48 -78 -106 -179 -130 -224 -24 -46 -46 -83 -49 -83 -3 0 -27 39 -53 88 -26
48 -85 148 -130 222 l-82 135 -323 3 -322 2 132 -182z"/>
</g>
</svg>
