<?xml version="1.0" encoding="utf-8"?>
<!-- Generator: Adobe Illustrator 23.0.3, SVG Export Plug-In . SVG Version: 6.00 Build 0)  -->
<svg version="1.1" id="Layer_1" xmlns="http://www.w3.org/2000/svg" xmlns:xlink="http://www.w3.org/1999/xlink" x="0px" y="0px"
	 viewBox="0 0 1920 1080" style="enable-background:new 0 0 1920 1080;" xml:space="preserve">
<style type="text/css">
	.st0{fill:url(#SVGID_1_);}
	.st1{opacity:0.1;}
	.st2{clip-path:url(#SVGID_3_);}
	.st3{fill:#004987;}
	.st4{fill:#DB6015;}
	.st5{fill:#FFFFFF;}
	.st6{clip-path:url(#SVGID_3_);fill:#FFFFFF;}
	.st7{clip-path:url(#SVGID_3_);fill:#DB6015;}
	.st8{clip-path:url(#SVGID_3_);fill:none;stroke:#FFFFFF;stroke-width:0.644;stroke-miterlimit:10;}
	.st9{clip-path:url(#SVGID_3_);fill:none;stroke:#FFFFFF;stroke-width:1.2443;stroke-miterlimit:10;}
	.st10{fill:none;stroke:#004987;stroke-width:1.7383;stroke-miterlimit:10;}
	.st11{opacity:0.9375;fill:none;stroke:#004987;stroke-width:1.7383;stroke-miterlimit:10;}
	.st12{opacity:0.875;fill:none;stroke:#004987;stroke-width:1.7383;stroke-miterlimit:10;}
	.st13{opacity:0.8125;fill:none;stroke:#004987;stroke-width:1.7383;stroke-miterlimit:10;}
	.st14{opacity:0.75;fill:none;stroke:#004987;stroke-width:1.7383;stroke-miterlimit:10;}
	.st15{opacity:0.6875;fill:none;stroke:#004987;stroke-width:1.7383;stroke-miterlimit:10;}
	.st16{opacity:0.625;fill:none;stroke:#004987;stroke-width:1.7383;stroke-miterlimit:10;}
	.st17{opacity:0.5625;fill:none;stroke:#004987;stroke-width:1.7383;stroke-miterlimit:10;}
	.st18{opacity:0.5;fill:none;stroke:#004987;stroke-width:1.7383;stroke-miterlimit:10;}
	.st19{opacity:0.4375;fill:none;stroke:#004987;stroke-width:1.7383;stroke-miterlimit:10;}
	.st20{opacity:0.375;fill:none;stroke:#004987;stroke-width:1.7383;stroke-miterlimit:10;}
	.st21{opacity:0.3125;fill:none;stroke:#004987;stroke-width:1.7383;stroke-miterlimit:10;}
	.st22{opacity:0.25;fill:none;stroke:#004987;stroke-width:1.7383;stroke-miterlimit:10;}
	.st23{opacity:0.1875;fill:none;stroke:#004987;stroke-width:1.7383;stroke-miterlimit:10;}
	.st24{opacity:0.125;fill:none;stroke:#004987;stroke-width:1.7383;stroke-miterlimit:10;}
	.st25{opacity:0.0625;fill:none;stroke:#004987;stroke-width:1.7383;stroke-miterlimit:10;}
	.st26{opacity:0;fill:none;stroke:#004987;stroke-width:1.7383;stroke-miterlimit:10;}
	.st27{fill:none;stroke:#004987;stroke-width:1.3132;stroke-miterlimit:10;}
	.st28{opacity:0.9375;fill:none;stroke:#004987;stroke-width:1.3132;stroke-miterlimit:10;}
	.st29{opacity:0.875;fill:none;stroke:#004987;stroke-width:1.3132;stroke-miterlimit:10;}
	.st30{opacity:0.8125;fill:none;stroke:#004987;stroke-width:1.3132;stroke-miterlimit:10;}
	.st31{opacity:0.75;fill:none;stroke:#004987;stroke-width:1.3132;stroke-miterlimit:10;}
	.st32{opacity:0.6875;fill:none;stroke:#004987;stroke-width:1.3132;stroke-miterlimit:10;}
	.st33{opacity:0.625;fill:none;stroke:#004987;stroke-width:1.3132;stroke-miterlimit:10;}
	.st34{opacity:0.5625;fill:none;stroke:#004987;stroke-width:1.3132;stroke-miterlimit:10;}
	.st35{opacity:0.5;fill:none;stroke:#004987;stroke-width:1.3132;stroke-miterlimit:10;}
	.st36{opacity:0.4375;fill:none;stroke:#004987;stroke-width:1.3132;stroke-miterlimit:10;}
	.st37{opacity:0.375;fill:none;stroke:#004987;stroke-width:1.3132;stroke-miterlimit:10;}
	.st38{opacity:0.3125;fill:none;stroke:#004987;stroke-width:1.3132;stroke-miterlimit:10;}
	.st39{opacity:0.25;fill:none;stroke:#004987;stroke-width:1.3132;stroke-miterlimit:10;}
	.st40{opacity:0.1875;fill:none;stroke:#004987;stroke-width:1.3132;stroke-miterlimit:10;}
	.st41{opacity:0.125;fill:none;stroke:#004987;stroke-width:1.3132;stroke-miterlimit:10;}
	.st42{opacity:0.0625;fill:none;stroke:#004987;stroke-width:1.3132;stroke-miterlimit:10;}
	.st43{opacity:0;fill:none;stroke:#004987;stroke-width:1.3132;stroke-miterlimit:10;}
	.st44{fill:#606060;}
	.st45{fill:url(#SVGID_4_);}
	.st46{fill:url(#SVGID_5_);}
	.st47{fill:url(#SVGID_6_);}
	.st48{fill:url(#SVGID_7_);}
	.st49{fill:url(#SVGID_8_);}
	.st50{fill:url(#SVGID_9_);}
	.st51{fill:url(#SVGID_10_);}
	.st52{fill:url(#SVGID_11_);}
	.st53{fill:url(#SVGID_12_);}
	.st54{fill:url(#SVGID_13_);}
	.st55{fill:url(#SVGID_14_);}
	.st56{fill:url(#SVGID_15_);}
	.st57{opacity:0.47;fill:url(#SVGID_16_);}
	.st58{fill:url(#SVGID_17_);}
	.st59{fill:url(#SVGID_18_);}
	.st60{fill:url(#SVGID_19_);}
	.st61{fill:url(#SVGID_20_);}
	.st62{fill:url(#SVGID_21_);}
	.st63{fill:url(#SVGID_22_);}
	.st64{fill:url(#SVGID_23_);}
	.st65{fill:url(#SVGID_24_);}
	.st66{fill:url(#SVGID_25_);}
	.st67{fill:url(#SVGID_26_);}
	.st68{fill:url(#SVGID_27_);}
	.st69{fill:url(#SVGID_28_);}
	.st70{fill:url(#SVGID_29_);}
	.st71{fill:url(#SVGID_30_);}
	.st72{fill:url(#SVGID_31_);}
	.st73{opacity:0.47;fill:url(#SVGID_32_);}
	.st74{fill:url(#SVGID_33_);}
	.st75{fill:url(#SVGID_34_);}
	.st76{fill:url(#SVGID_35_);}
</style>
<g>
	<g>
		<g>
			<path class="st4" d="M662.27,274.67c-44.93,0-84.98,20.88-111.07,53.41l53.57,31.69c14.68-14.78,35.02-23.93,57.5-23.93
				c44.8,0,81.08,36.28,81.08,81.08c0,44.79-36.28,81.09-81.08,81.09c-22.55,0-42.95-9.21-57.65-24.09l-52.99,32.37
				c26.07,32.23,65.94,52.87,110.64,52.87c78.57,0,142.27-63.7,142.27-142.24C804.54,338.35,740.84,274.67,662.27,274.67z"/>
			<path class="st5" d="M663.5,414.55l-131.18-77.58c-0.75-0.45-1.66-0.45-2.41-0.02c-0.75,0.43-1.2,1.22-1.2,2.07v157.64
				c0,0.87,0.46,1.66,1.21,2.1c0.36,0.21,0.76,0.31,1.18,0.31c0.42,0,0.86-0.12,1.23-0.35l131.18-80.05
				c0.73-0.43,1.16-1.22,1.16-2.06C664.68,415.76,664.22,414.98,663.5,414.55z"/>
		</g>
		<path class="st5" d="M269.79,354.16c5.31-6.29,11.04-11.03,17.58-14.47c5.98-3.14,12.22-4.68,19.05-4.68h168.36v-61.05H301.25
			c-10.86,0-21.5,1.91-31.61,5.68c-9.74,3.64-18.94,8.81-27.39,15.33c-8.21,6.39-15.75,14.13-22.41,22.97
			c-6.55,8.68-12.22,18.4-16.79,28.83c-4.57,10.35-8.16,21.57-10.66,33.37c-2.51,11.81-3.77,24.24-3.77,36.94v143.11h60.71V447.61
			h225.45v-61.04H253.11c0.88-3.09,1.91-6.1,3.06-9C259.76,368.56,264.34,360.68,269.79,354.16z"/>
		<path class="st5" d="M1417.9,273.84V416.9c0,11.8-1.85,22.93-5.5,33.11c-3.64,10.28-8.53,19.26-14.5,26.71
			c-5.69,7.11-12.32,12.75-19.72,16.78c-6.87,3.75-13.77,5.56-21.15,5.56h-20.1h-20.22c-7.4,0-14.32-1.81-21.13-5.56
			c-7.43-4.05-14.07-9.69-19.74-16.76c-5.95-7.47-10.86-16.43-14.48-26.71c-3.67-10.23-5.52-21.37-5.52-33.12V273.84h-62.02V416.9
			c0,12.75,1.26,25.2,3.79,36.99c2.49,11.77,6.05,23.02,10.64,33.4c4.72,10.59,10.36,20.31,16.83,28.86
			c6.62,8.8,14.15,16.53,22.41,22.94c8.41,6.55,17.64,11.71,27.4,15.38c10.13,3.77,20.77,5.69,31.66,5.69h60.64
			c10.91,0,21.55-1.92,31.63-5.69c9.78-3.67,19.01-8.83,27.44-15.38c8.23-6.41,15.8-14.14,22.43-22.98
			c6.52-8.66,12.17-18.35,16.8-28.82c4.59-10.38,8.16-21.62,10.69-33.4c2.49-11.86,3.76-24.31,3.76-36.99V273.84H1417.9z"/>
		<path class="st5" d="M1595.26,339.88c1.41-1.68,2.96-2.91,4.76-3.75c1.65-0.81,3.39-1.17,5.52-1.17H1815v-61.11h-220.07
			c-10.21,0-19.84,2.86-28.67,8.54c-7.77,4.98-14.58,11.59-20.24,19.67c-5.4,7.72-9.68,16.61-12.67,26.41
			c-2.98,9.72-4.49,19.95-4.49,30.44c0,10.38,1.5,20.74,4.42,30.81c2.89,10.05,7.05,19.28,12.34,27.4
			c5.54,8.57,12.25,15.66,19.95,21.07c8.96,6.28,18.82,9.46,29.35,9.46h143.26c2.08,0,3.81,0.37,5.46,1.17
			c1.83,0.89,3.33,2.07,4.72,3.73c1.66,2,3.09,4.61,4.21,7.72c1.11,3.12,1.66,6.93,1.66,11.32c0,4.47-0.6,8.5-1.85,12.33
			c-1.21,3.72-2.76,6.88-4.62,9.34c-1.56,2.1-3.33,3.69-5.37,4.86c-1.36,0.8-2.63,1.13-4.21,1.13h-209.33v61.1h220.02
			c10.51,0,20.35-3.17,29.31-9.44c7.75-5.39,14.5-12.5,20.05-21.12c5.25-8.06,9.39-17.29,12.32-27.4
			c2.93-10.03,4.42-20.38,4.42-30.79c0-10.5-1.53-20.76-4.51-30.45c-2.98-9.79-7.22-18.67-12.65-26.38
			c-5.64-8.06-12.44-14.68-20.24-19.7c-8.85-5.64-18.51-8.51-28.72-8.51h-143.35c-1.58,0-2.93-0.36-4.26-1.12
			c-2.01-1.15-3.77-2.78-5.42-4.93c-1.85-2.45-3.39-5.55-4.56-9.21c-1.25-3.82-1.86-8.01-1.86-12.39c0-4.39,0.57-8.21,1.68-11.39
			C1592.21,344.45,1593.6,341.87,1595.26,339.88z"/>
		<path class="st5" d="M937.24,356.38c5.32-7.07,11.32-12.44,18.36-16.4c6.42-3.62,13.05-5.38,20.27-5.38h168.25v-60.94H971.06
			c-10.88,0-21.48,1.91-31.54,5.66c-9.71,3.62-18.92,8.78-27.37,15.33c-8.28,6.48-15.81,14.19-22.36,22.91
			c-6.52,8.67-12.15,18.33-16.78,28.76c-4.57,10.39-8.13,21.62-10.61,33.32c-2.49,11.71-3.77,24.11-3.77,36.86
			s1.28,25.17,3.77,36.89c2.48,11.7,6.04,22.9,10.61,33.28c4.62,10.45,10.26,20.13,16.78,28.77c6.58,8.77,14.12,16.47,22.36,22.9
			c8.38,6.53,17.59,11.68,27.37,15.32c10.04,3.76,20.65,5.67,31.54,5.67h173.06v-60.92H975.87c-7.22,0-13.83-1.75-20.24-5.37
			c-7.07-3.99-13.07-9.39-18.39-16.41c-5.54-7.37-10.03-16.29-13.34-26.55c-3.33-10.38-5.02-21.67-5.02-33.59
			c0-11.91,1.7-23.21,5.02-33.6C927.22,372.67,931.7,363.75,937.24,356.38z"/>
	</g>
	<g>
		<path class="st5" d="M221.35,737.33v-46.25L187,635.96h25.41l15.03,27.77c0.73,1.38,1.5,3.15,2.28,5.26
			c0.8,2.12,1.61,4.56,2.43,7.34c0.65-2.36,1.36-4.58,2.19-6.65c0.78-2.07,1.71-4.09,2.73-6.08l14.91-27.64h25.37l-34.34,55.12
			v46.25H221.35z"/>
		<path class="st5" d="M344.83,703.61c0,10.43-3.58,19.12-10.71,26.04c-7.13,6.92-16.18,10.37-27.1,10.37
			c-11.02,0-20.12-3.45-27.27-10.37c-7.17-6.92-10.73-15.6-10.73-26.04c0-10.38,3.59-19.05,10.79-26.02
			c7.18-6.98,16.26-10.46,27.2-10.46c10.99,0,20.04,3.45,27.14,10.31C341.27,684.32,344.83,693.04,344.83,703.61z M324.74,703.46
			c0-5.52-1.63-9.95-4.84-13.25c-3.24-3.29-7.58-4.95-13.02-4.95c-5.45,0-9.78,1.64-12.95,4.92c-3.18,3.28-4.77,7.69-4.77,13.28
			c0,5.55,1.6,9.98,4.77,13.31c3.18,3.32,7.5,4.97,12.95,4.97c5.4,0,9.71-1.65,12.99-4.97
			C323.12,713.43,324.74,709.01,324.74,703.46z"/>
		<path class="st5" d="M383.27,669.41v35.72c0,6,1.16,10.28,3.51,12.88c2.31,2.58,6.12,3.87,11.39,3.87c5.2,0,8.98-1.3,11.34-3.91
			c2.36-2.61,3.54-6.89,3.54-12.84v-35.72h19.72v35.72c0,11.94-2.79,20.74-8.38,26.41c-5.57,5.66-14.23,8.47-25.96,8.47
			c-11.95,0-20.74-2.79-26.34-8.45c-5.6-5.62-8.41-14.43-8.41-26.43v-35.72H383.27z"/>
		<path class="st5" d="M475.04,686.86c1.98-6.6,4.84-11.55,8.55-14.82c3.71-3.28,8.31-4.92,13.82-4.92c1.23,0,3.29,0.22,6.15,0.69
			c0.57,0.1,0.98,0.15,1.25,0.21l-2.98,21.19c-1.48-0.61-2.98-1.06-4.47-1.36c-1.5-0.3-3.06-0.46-4.72-0.46
			c-6.02,0-10.33,1.54-12.97,4.61c-2.61,3.06-3.94,8.22-3.94,15.41v29.91H456v-67.92h19.45L475.04,686.86z"/>
		<path class="st5" d="M605.4,654.39v82.94h-21.75v-82.94h-24.77v-18.43h71.3v18.43H605.4z"/>
		<path class="st5" d="M654.39,686.86c1.98-6.6,4.82-11.55,8.53-14.82c3.71-3.28,8.31-4.92,13.82-4.92c1.23,0,3.29,0.22,6.17,0.69
			c0.53,0.1,0.97,0.15,1.25,0.21l-2.98,21.19c-1.48-0.61-2.98-1.06-4.47-1.36c-1.5-0.3-3.08-0.46-4.74-0.46
			c-6,0-10.31,1.54-12.95,4.61c-2.64,3.06-3.94,8.22-3.94,15.41v29.91h-19.72v-67.92h19.44L654.39,686.86z"/>
		<path class="st5" d="M716.64,669.41v35.72c0,6,1.18,10.28,3.51,12.88c2.31,2.58,6.12,3.87,11.37,3.87c5.22,0,9-1.3,11.37-3.91
			c2.34-2.61,3.52-6.89,3.52-12.84v-35.72h19.72v35.72c0,11.94-2.79,20.74-8.38,26.41s-14.23,8.47-25.96,8.47
			c-11.95,0-20.74-2.79-26.34-8.45c-5.6-5.62-8.41-14.43-8.41-26.43v-35.72H716.64z"/>
		<path class="st5" d="M782.72,725.41l15.17-7.82c0.51,2.63,1.88,4.71,4.11,6.22c2.19,1.53,4.94,2.3,8.23,2.3
			c3.22,0,5.75-0.59,7.6-1.75c1.85-1.2,2.78-2.81,2.78-4.88c0-3.28-3.27-6.03-9.83-8.25c-2.04-0.69-3.66-1.26-4.86-1.72
			c-7.98-3.01-13.52-6.04-16.58-9.07c-3.08-3.04-4.62-6.82-4.62-11.28c0-6.65,2.63-12.02,7.83-16.13c5.24-4.12,12.1-6.17,20.65-6.17
			c6.09,0,11.36,1.22,15.81,3.67c4.47,2.43,7.7,5.91,9.71,10.38l-14.47,7.21c-0.76-2.53-2.15-4.47-4.07-5.78
			c-1.94-1.31-4.37-1.98-7.27-1.98c-2.91,0-5.27,0.6-7.07,1.8c-1.79,1.21-2.69,2.76-2.69,4.71c0,3.37,4.47,6.49,13.42,9.4
			c1.06,0.32,1.88,0.57,2.43,0.77c7.42,2.44,12.72,5.3,15.86,8.55c3.13,3.26,4.71,7.42,4.71,12.44c0,6.73-2.63,12.07-7.83,16.05
			c-5.22,3.97-12.25,5.95-21.12,5.95c-7.02,0-13-1.29-17.98-3.89C787.71,733.5,784.4,729.95,782.72,725.41z"/>
		<path class="st5" d="M860.7,737.33v-52.49h-9.48v-15.42h9.48v-22.57h19.74v22.57h9.48v15.42h-9.48v52.49H860.7z"/>
		<path class="st5" d="M972.69,708.25h-51.01c0.76,4.88,2.56,8.55,5.32,10.97c2.76,2.42,6.53,3.63,11.29,3.63
			c3.59,0,6.7-0.69,9.31-2.07c2.59-1.38,4.79-3.49,6.53-6.3l15.93,7.96c-3.71,5.97-8.16,10.38-13.44,13.27
			c-5.27,2.88-11.52,4.31-18.76,4.31c-11.01,0-19.7-3.28-26.11-9.83c-6.42-6.55-9.63-15.36-9.63-26.43
			c0-10.68,3.36-19.44,10.08-26.32c6.72-6.86,15.31-10.31,25.79-10.31c10.81,0,19.34,3.22,25.62,9.66
			c6.27,6.44,9.41,15.22,9.41,26.33c0,0.6-0.03,1.27-0.07,1.99C972.92,705.8,972.84,706.87,972.69,708.25z M953.17,696.34
			c-0.55-4.29-2.11-7.54-4.69-9.73c-2.54-2.2-6.04-3.31-10.47-3.31c-4.44,0-7.97,1.11-10.64,3.31c-2.64,2.19-4.34,5.44-5.07,9.73
			H953.17z"/>
		<path class="st5" d="M1059.95,737.33h-19.11l0.27-9.75c-2.68,4.29-5.9,7.43-9.64,9.43c-3.76,2.01-8.36,3.01-13.73,3.01
			c-9.01,0-16.26-3.33-21.78-10.04c-5.5-6.68-8.28-15.53-8.28-26.52c0-11.48,2.71-20.44,8.13-26.84c5.44-6.43,12.95-9.62,22.6-9.62
			c4.94,0,9.29,1.12,13.04,3.38c3.74,2.29,7.23,5.84,10.51,10.74c-0.21-1.66-0.42-3.5-0.51-5.51c-0.12-2-0.17-4.31-0.17-6.88V630
			h18.69V737.33z M1041.94,703.27c0-6.09-1.53-10.92-4.61-14.47c-3.07-3.56-7.2-5.35-12.42-5.35c-5.34,0-9.56,1.74-12.62,5.25
			c-3.09,3.48-4.61,8.29-4.61,14.42s1.5,10.94,4.52,14.4c3.03,3.46,7.22,5.21,12.57,5.21c5.45,0,9.66-1.72,12.67-5.14
			C1040.45,714.16,1041.94,709.39,1041.94,703.27z"/>
		<path class="st5" d="M1133.48,737.33V635.96h21.65v101.37H1133.48z"/>
		<path class="st5" d="M1220.38,654.39v82.94h-21.73v-82.94h-24.78v-18.43h71.32v18.43H1220.38z"/>
		<path class="st5" d="M1311.41,737.33V635.96h24.93c13.3,0,23.11,2.55,29.46,7.61c6.35,5.08,9.53,12.92,9.53,23.55
			c0,9.83-3.21,17.54-9.59,23.13c-6.4,5.59-15.23,8.37-26.54,8.37h-5.95v38.7H1311.41z M1333.25,681.72h3.09
			c5.92,0,10.21-1.21,12.89-3.67c2.68-2.43,4.02-6.35,4.02-11.76c0-4.98-1.35-8.61-4.02-10.92c-2.68-2.27-6.97-3.42-12.89-3.42
			h-3.09V681.72z"/>
		<path class="st5" d="M1455.81,737.33h-19.12l0.28-9.75c-2.68,4.29-5.89,7.43-9.66,9.43c-3.77,2.01-8.35,3.01-13.74,3.01
			c-9.01,0-16.26-3.33-21.78-10.04c-5.5-6.68-8.26-15.53-8.26-26.52c0-11.44,2.71-20.36,8.11-26.74c5.44-6.4,12.99-9.59,22.63-9.59
			c5.02,0,9.43,1.12,13.24,3.39c3.82,2.25,7.02,5.62,9.59,10.1v-11.21h18.71V737.33z M1437.8,703.27c0-6.09-1.53-10.92-4.62-14.47
			c-3.04-3.56-7.2-5.35-12.4-5.35c-5.36,0-9.58,1.78-12.65,5.3c-3.06,3.53-4.59,8.36-4.59,14.51c0,6.13,1.51,10.9,4.54,14.32
			c3.03,3.42,7.2,5.14,12.57,5.14c5.44,0,9.66-1.72,12.67-5.14C1436.29,714.16,1437.8,709.39,1437.8,703.27z"/>
		<path class="st5" d="M1497.66,686.86c1.98-6.6,4.82-11.55,8.55-14.82c3.71-3.28,8.31-4.92,13.82-4.92c1.23,0,3.29,0.22,6.13,0.69
			c0.57,0.1,0.98,0.15,1.25,0.21l-2.96,21.19c-1.48-0.61-2.98-1.06-4.49-1.36c-1.48-0.3-3.06-0.46-4.72-0.46
			c-6.02,0-10.33,1.54-12.95,4.61c-2.63,3.06-3.94,8.22-3.94,15.41v29.91h-19.74v-67.92h19.47L1497.66,686.86z"/>
		<path class="st5" d="M1543.04,737.33v-52.49h-9.48v-15.42h9.48v-22.57h19.74v22.57h9.48v15.42h-9.48v52.49H1543.04z"/>
		<path class="st5" d="M1588.68,737.33v-67.92H1608v10.67c3.54-4.46,7.37-7.7,11.46-9.81c4.09-2.1,8.61-3.14,13.6-3.14
			c5.27,0,9.69,0.87,13.25,2.66c3.57,1.77,6.4,4.49,8.5,8.15c1.01,1.89,1.75,4.01,2.18,6.39c0.43,2.38,0.65,6.12,0.65,11.2v2.14
			v39.67h-19.72v-33.57c0-8.36-0.96-13.9-2.91-16.55c-1.95-2.69-5.25-4.01-9.98-4.01c-2.73,0-5.22,0.57-7.52,1.7
			c-2.3,1.14-4.19,2.72-5.72,4.8c-1.18,1.62-2.04,3.47-2.58,5.55c-0.53,2.07-0.8,5.24-0.8,9.49v2.7v29.91H1588.68z"/>
		<path class="st5" d="M1746.91,708.25h-51.03c0.78,4.88,2.58,8.55,5.35,10.97c2.76,2.42,6.5,3.63,11.28,3.63
			c3.61,0,6.7-0.69,9.31-2.07c2.61-1.38,4.77-3.49,6.53-6.3l15.91,7.96c-3.67,5.97-8.15,10.38-13.42,13.27
			c-5.25,2.88-11.51,4.31-18.77,4.31c-10.99,0-19.67-3.28-26.09-9.83c-6.4-6.55-9.61-15.36-9.61-26.43
			c0-10.68,3.36-19.44,10.06-26.32c6.72-6.86,15.31-10.31,25.81-10.31c10.77,0,19.32,3.22,25.61,9.66
			c6.25,6.44,9.41,15.22,9.41,26.33c0,0.6-0.02,1.27-0.08,1.99C1747.14,705.8,1747.04,706.87,1746.91,708.25z M1727.41,696.34
			c-0.58-4.29-2.15-7.54-4.69-9.73c-2.56-2.2-6.05-3.31-10.48-3.31c-4.46,0-8,1.11-10.64,3.31c-2.64,2.19-4.34,5.44-5.09,9.73
			H1727.41z"/>
		<path class="st5" d="M1785.15,686.86c1.99-6.6,4.84-11.55,8.55-14.82c3.71-3.28,8.35-4.92,13.83-4.92c1.25,0,3.29,0.22,6.15,0.69
			c0.53,0.1,0.97,0.15,1.25,0.21l-2.98,21.19c-1.5-0.61-2.98-1.06-4.47-1.36c-1.5-0.3-3.08-0.46-4.74-0.46
			c-6,0-10.33,1.54-12.94,4.61c-2.64,3.06-3.96,8.22-3.96,15.41v29.91h-19.72v-67.92h19.45L1785.15,686.86z"/>
	</g>
</g>
</svg>
