<?xml version="1.0" encoding="utf-8"?>
<!-- Generator: Adobe Illustrator 23.0.3, SVG Export Plug-In . SVG Version: 6.00 Build 0)  -->
<svg version="1.1" id="Layer_1" xmlns="http://www.w3.org/2000/svg" xmlns:xlink="http://www.w3.org/1999/xlink" x="0px" y="0px"
	 viewBox="0 0 1920 398" style="enable-background:new 0 0 1920 398;" xml:space="preserve">
<style type="text/css">
	.st0{fill:#FFFFFF;}
	.st1{fill:#DB6015;}
</style>
<g>
	<path class="st0" d="M186.59,118.75v20.34H25.03V240.4h137v20.72h-137v130.86H2V118.75H186.59z"/>
	<path class="st0" d="M343.93,397.74c-37.87,0-68.57-13.3-92.1-39.91c-23.54-26.6-35.31-60.76-35.31-102.46
		c0-41.45,11.76-75.47,35.31-102.08c23.28-26.35,53.98-39.53,92.1-39.53c38.63,0,69.59,13.18,92.87,39.53
		c23.28,26.35,34.92,60.38,34.92,102.08c0,41.96-11.64,76.12-34.92,102.46C413.26,384.44,382.3,397.74,343.93,397.74z
		 M343.93,376.63c31.47,0,56.66-11.13,75.6-33.39c18.93-22,28.4-51.29,28.4-87.88c0-36.32-9.47-65.49-28.4-87.5
		c-19.19-22-44.39-33-75.6-33c-31.22,0-56.29,11-75.22,33c-18.94,22.01-28.4,51.17-28.4,87.5c0,36.33,9.59,65.62,28.78,87.88
		C288.03,365.51,312.97,376.63,343.93,376.63z"/>
	<path class="st0" d="M648.24,397.74c-37.36,0-67.03-13.3-89.03-39.91c-22.01-26.6-33-60.89-33-102.85
		c0-42.72,11.13-76.88,33.39-102.46c22-25.84,51.42-38.76,88.26-38.76c28.65,0,53.59,8.06,74.83,24.18
		c20.72,16.38,33,37.48,36.84,63.32h-23.79c-4.1-20.21-14.01-36.32-29.74-48.35c-15.73-12.02-34.86-18.04-57.37-18.04
		c-30.19,0-54.11,10.75-71.76,32.24C558.95,188.34,550,217.63,550,254.98c0,36.84,8.83,66.26,26.48,88.26
		c17.39,22.26,41.57,33.39,72.53,33.39c24.56,0,44.96-7.29,61.21-21.87c16.24-14.58,25.65-34.28,28.21-59.1h23.03
		c-3.33,30.45-15.22,55.13-35.69,74.06C705.29,388.41,679.45,397.74,648.24,397.74z"/>
	<path class="st0" d="M995.92,373.95c-18.17,15.61-43.36,23.41-75.6,23.41c-32.24,0-57.44-7.8-75.6-23.41
		c-18.42-15.35-27.63-38.76-27.63-70.23V118.75h23.03v185.74c0,48.1,26.73,72.15,80.2,72.15c53.47,0,80.2-24.04,80.2-72.15V118.75
		h23.03v184.97C1023.55,335.19,1014.34,358.6,995.92,373.95z"/>
	<path class="st1" d="M1606.47,391.98h-90.18l-12.28-37.22h-85.58l-12.28,37.22h-89.8l102.85-273.23h85.19L1606.47,391.98z
		 M1451.05,255.75l-13.43,41.06h47.59l-13.43-41.06l-10.36-35.69L1451.05,255.75z"/>
	<path class="st1" d="M1912.32,118.75l-92.87,129.33L1920,391.98h-102.85l-33-54.11l-14.97-28.78l-14.97,28.4l-34.15,54.49h-102.08
		l101.69-144.29l-93.25-128.94h99.78l26.1,42.98l17.65,31.85l17.27-31.85l26.48-42.98H1912.32z"/>
	<path class="st1" d="M1273.62,321.18c0.33-1.25-0.41-2.52-1.66-2.85l-5.53-1.46l45.42-171.69l1.32-5l-9.68-8.4
		c0.02-0.06,0.05-0.11,0.07-0.17l0.73-2.76c0-0.02,0-0.04,0.01-0.05l0.17,0.04c0.64,0.17,1.31-0.21,1.48-0.86l0.5-1.9
		c0.03-0.13,0.04-0.25,0.03-0.38c0.07-0.1,0.12-0.21,0.15-0.33l0.91-3.44c0.16-0.59-0.2-1.19-0.78-1.35l-0.45-0.12l1.79-26.01
		c0.3-1.14-0.38-2.3-1.51-2.6l-3.69-0.77l21.57-82.46l-2.54-1.9l-23.47,83.09l-2.64-0.83c-1.14-0.3-2.3,0.38-2.6,1.51l-11.31,23.49
		l-0.45-0.12c-0.59-0.16-1.19,0.2-1.35,0.78l-0.91,3.44c-0.03,0.12-0.04,0.24-0.03,0.36c-0.07,0.1-0.12,0.22-0.16,0.34l-0.5,1.9
		c-0.17,0.64,0.21,1.31,0.86,1.48l0.17,0.04c-0.01,0.02-0.01,0.03-0.02,0.05l-0.73,2.76c-0.02,0.06-0.02,0.12-0.03,0.18l-12.57,2.51
		l-1.32,5l-45.42,171.69l4.59,1.21l-10.12-2.68c-1.25-0.33-2.52,0.41-2.85,1.66l-0.11,0.41c-0.33,1.25,0.41,2.52,1.66,2.85
		l11.69,3.09l-17.89,67.61l-4.97-1.31c-1.07-0.28-2.16,0.35-2.44,1.42l-0.28,1.07c-0.28,1.07,0.35,2.16,1.42,2.44l44.44,11.78
		c1.07,0.28,2.16-0.35,2.44-1.42l0.28-1.07c0.28-1.07-0.35-2.16-1.42-2.44l-4.97-1.31l17.89-67.62l11.85,3.13
		c1.25,0.33,2.52-0.41,2.85-1.66L1273.62,321.18z"/>
	<polygon class="st0" points="1236.93,391.73 1150.03,391.73 1065.68,119 1152.57,119 	"/>
</g>
</svg>
